# xmcd CD database file
#
# Track frame offsets:
#	150
#	43125
#	77325
#	102075
#	131625
#	156375
#	186975
#	211275
#
# Disc length: 3263 seconds
#
# Revision: 0
# Processed by: cddbd v1.4PL0 Copyright (c) Steve Scherf et al.
# Submitted via: CDex 1.50
#
DISCID=680cbd08
DTITLE=Cindy Blackman - The Oracle
DYEAR=1996
DGENRE=Jazz
TTITLE0=The Oracle
TTITLE1=Crazy He Calls Me
TTITLE2=A.J.
TTITLE3=Beatrice
TTITLE4=Who Needs Forever
TTITLE5=Traffic
TTITLE6=Why
TTITLE7=Our Blues
EXTD=YEAR: 1996
EXTT0=
EXTT1=
EXTT2=
EXTT3=
EXTT4=
EXTT5=
EXTT6=
EXTT7=
PLAYORDER=
